<svg id="Group_2522" data-name="Group 2522" xmlns="http://www.w3.org/2000/svg" width="59" height="59" viewBox="0 0 59 59">
  <path id="Path_1215" data-name="Path 1215" d="M29.5,0A29.5,29.5,0,1,1,0,29.5,29.5,29.5,0,0,1,29.5,0Z" fill="#eff4f8"/>
  <path id="leaf-solid_3_" data-name="leaf-solid (3)" d="M28.455,39.365c0,7.108-3.893,13.077-9.742,15.01A9.737,9.737,0,0,1,6.465,49.817a13.5,13.5,0,0,0-3.832,6.008,1.334,1.334,0,0,1-1.3,1.023,1.372,1.372,0,0,1-.311-.036A1.336,1.336,0,0,1,.039,55.2c.533-2.2,5.028-12.582,18.634-12.582a.889.889,0,1,0,0-1.777,21.612,21.612,0,0,0-13.322,4.2,10.021,10.021,0,0,1,.2-1.837,9.769,9.769,0,0,1,11.8-7.458,7.485,7.485,0,0,0,8.3-3.4.769.769,0,0,1,1.37.046A17.46,17.46,0,0,1,28.455,39.365Z" transform="translate(15.271 -14.898)" fill="#a62825"/>
</svg>
