<svg id="Group_2522" data-name="Group 2522" xmlns="http://www.w3.org/2000/svg" width="59" height="59" viewBox="0 0 59 59">
  <path id="Path_1215" data-name="Path 1215" d="M29.5,0A29.5,29.5,0,1,1,0,29.5,29.5,29.5,0,0,1,29.5,0Z" fill="#eff4f8"/>
  <path id="wheat-awn-solid" d="M20.4,6.279a1.065,1.065,0,0,1-1.622,0,1.131,1.131,0,0,1,0-1.621L23.087.345a1.127,1.127,0,0,1,1.622,0,1.11,1.11,0,0,1,0,1.664ZM15.528,1.893a6.375,6.375,0,0,1,.6.7l2.25-2.25A1.127,1.127,0,0,1,20,.345a1.11,1.11,0,0,1,0,1.664L17.19,4.862a6.271,6.271,0,0,1-.069,3.2,5.838,5.838,0,0,1,3.059-.1l2.907-2.912a1.13,1.13,0,0,1,1.622,0,1.065,1.065,0,0,1,0,1.622l-2.22,2.3a6.961,6.961,0,0,1,.8.681l.554.554a.74.74,0,0,1,0,1.069l-.554.6a4.707,4.707,0,0,1-6.656,0l-.6-.6L14.474,12.8A6.556,6.556,0,0,1,18.3,14.646l.554.559a.787.787,0,0,1,0,1.108l-.554.554a4.707,4.707,0,0,1-6.656,0l-.6-.6L9.485,17.832a6.311,6.311,0,0,1,3.823,1.809l.554.51a.831.831,0,0,1,0,1.152l-.554.554a4.7,4.7,0,0,1-6.651,0l-.6-.6L2.678,24.635A1.568,1.568,0,1,1,.459,22.42l3.378-3.377-.51-.515a4.7,4.7,0,0,1,0-6.651l.555-.6a.872.872,0,0,1,1.108,0l.554.6a6.254,6.254,0,0,1,1.794,3.666l1.49-1.495-.51-.51a4.7,4.7,0,0,1,0-6.651l.554-.559a.787.787,0,0,1,1.108,0l.515.559a6.3,6.3,0,0,1,1.833,3.666l1.49-1.495-.51-.51a4.705,4.705,0,0,1,0-6.655l.554-.555a.789.789,0,0,1,1.113,0Z" transform="translate(16.958 16.953)" fill="#a62825"/>
</svg>
