<svg id="Group_2522" data-name="Group 2522" xmlns="http://www.w3.org/2000/svg" width="59" height="59" viewBox="0 0 59 59">
  <path id="Path_1215" data-name="Path 1215" d="M29.5,0A29.5,29.5,0,1,1,0,29.5,29.5,29.5,0,0,1,29.5,0Z" fill="#eff4f8"/>
  <path id="trailer-solid" d="M21.679,32a2.1,2.1,0,0,1,2.1,2.1v10.49h2.8a1.4,1.4,0,0,1,0,2.8H12.54a4.9,4.9,0,0,0-9.693,0H2.1a2.1,2.1,0,0,1-2.1-2.1V34.1A2.1,2.1,0,0,1,2.1,32ZM2.8,35.5v6.652a7.614,7.614,0,0,1,1.4-.918V35.5a.7.7,0,1,0-1.4,0Zm4.9,4.9c.236,0,.468.009.7.031V35.5a.7.7,0,1,0-1.4,0v4.926C7.225,40.4,7.457,40.392,7.693,40.392Zm3.5.839a7.643,7.643,0,0,1,1.4.918V35.5a.7.7,0,1,0-1.4,0Zm4.2-5.735v8.392a.7.7,0,0,0,1.4,0V35.5a.7.7,0,1,0-1.4,0Zm5.595,0a.7.7,0,1,0-1.4,0v8.392a.7.7,0,0,0,1.4,0ZM4.2,48.085a3.5,3.5,0,1,1,3.5,3.5A3.5,3.5,0,0,1,4.2,48.085Zm3.5,1.4a1.4,1.4,0,1,0-1.4-1.4A1.4,1.4,0,0,0,7.693,49.483Z" transform="translate(16.514 -12.29)" fill="#a62825"/>
</svg>
