<svg xmlns="http://www.w3.org/2000/svg" xmlns:xlink="http://www.w3.org/1999/xlink" version="1.1" x="0px" y="0px" viewBox="0 0 320 320" style="enable-background:new 0 0 320 320;" xml:space="preserve" class="cmp-image__image">

<g>
	<path class="st0" fill="#AD1501" d="M87.03,302.17L0,17.83h320l-58.29,224.85L87.03,302.17z M17.96,31.11l77.77,254.07l154.93-52.77l52.18-201.3   H17.96z"></path>
	<g>
		<path class="st0" fill="#AD1501" d="M177.3,175.1c0-4.57-1.27-8.21-3.81-10.91c-2.54-2.7-6.85-5.2-12.92-7.49c-6.08-2.29-11.32-4.56-15.72-6.82    c-4.4-2.26-8.18-4.85-11.33-7.78c-3.15-2.93-5.6-6.37-7.36-10.33c-1.76-3.96-2.64-8.67-2.64-14.13c0-9.42,3.01-17.14,9.03-23.17    c6.02-6.02,14.02-9.53,24-10.54v-17.9h13.38v18.15c9.87,1.39,17.59,5.51,23.17,12.34c5.58,6.83,8.36,15.68,8.36,26.55H177.3    c0-6.69-1.38-11.69-4.14-15.01c-2.76-3.32-6.45-4.98-11.08-4.98c-4.57,0-8.11,1.3-10.62,3.89c-2.51,2.59-3.76,6.18-3.76,10.75    c0,4.24,1.23,7.64,3.68,10.2c2.45,2.57,7.01,5.19,13.67,7.86c6.66,2.68,12.14,5.2,16.43,7.57c4.29,2.37,7.92,5.05,10.87,8.03    c2.95,2.98,5.21,6.39,6.77,10.2c1.56,3.82,2.34,8.27,2.34,13.34c0,9.48-2.96,17.17-8.87,23.08c-5.91,5.91-14.05,9.39-24.42,10.45    v16.64h-13.3v-16.56c-11.43-1.23-20.28-5.28-26.55-12.17c-6.27-6.89-9.41-16.04-9.41-27.47h24.17c0,6.64,1.58,11.72,4.73,15.26    c3.15,3.54,7.68,5.31,13.59,5.31c4.91,0,8.78-1.3,11.62-3.89C175.88,183,177.3,179.5,177.3,175.1z"></path>
	</g>
</g>
</svg>