<svg xmlns="http://www.w3.org/2000/svg" xmlns:xlink="http://www.w3.org/1999/xlink" width="98" height="98" viewBox="0 0 98 98">
  <defs>
    <clipPath id="clip-path">
      <rect id="Rectangle_91" data-name="Rectangle 91" width="64.561" height="60.547" fill="none"/>
    </clipPath>
  </defs>
  <g id="Icon_w_background" data-name="Icon w background" transform="translate(-240 -1087)">
    <circle id="Ellipse_16" data-name="Ellipse 16" cx="49" cy="49" r="49" transform="translate(240 1087)" fill="#f9f6f2"/>
    <g id="Icon" transform="translate(256.719 1106.726)">
      <g id="Group_4083" data-name="Group 4083" clip-path="url(#clip-path)">
        <path id="Path_779" data-name="Path 779" d="M52.25,18.691a8.063,8.063,0,0,0-2.059.3,8.98,8.98,0,0,0-10.6.363C38.062,14.473,38.385,8.681,41.755,4.6A2.91,2.91,0,0,0,38.062.346C30.8,3.918,26.74,11.628,25.429,19.519l-.141.141a9.566,9.566,0,0,0-5.873-2.2,9.4,9.4,0,0,0-5.066,1.554,7.935,7.935,0,0,0-2.059-.3C5.53,18.691,0,27.632,0,38.61S5.53,58.529,12.331,58.529a8.267,8.267,0,0,0,2.1-.323,9.21,9.21,0,0,0,5.005,1.574,9.566,9.566,0,0,0,5.873-2.2,10.237,10.237,0,0,0,6.963,2.967,10.259,10.259,0,0,0,6.963-2.967,9.566,9.566,0,0,0,5.873,2.2,9.4,9.4,0,0,0,5.066-1.554,7.935,7.935,0,0,0,2.059.3c6.8,0,12.331-8.94,12.331-19.919S59.051,18.691,52.25,18.691M11.6,51.042,9.283,52.273a17.772,17.772,0,0,0,3.29,4.5c-.081,0-.161.02-.242.02-5.832,0-10.575-8.153-10.575-18.163S6.5,20.467,12.331,20.467c.081,0,.141.02.222.02C8.718,24.16,6.176,30.82,6.176,38.631c0,1.009.04,2.018.121,3.007l2.624-.222c-.081-.908-.121-1.837-.121-2.765C8.8,28.6,13.663,20.1,19.435,20.1a6.686,6.686,0,0,1,4.1,1.514c-3.068,4-4.985,10.091-4.985,17.033s1.917,13.037,4.985,17.033a6.922,6.922,0,0,1-4.1,1.493c-2.946-.02-5.792-2.26-7.83-6.135m29.4,4.6a23.983,23.983,0,0,0,3.774-7.83l-2.523-.727c-1.9,6.579-5.792,10.837-9.97,10.837-6.014,0-11.1-8.839-11.1-19.314S26.276,19.3,32.29,19.3c3.976,0,7.669,3.794,9.667,9.889l2.5-.807a22.625,22.625,0,0,0-3.451-6.761,6.913,6.913,0,0,1,4.137-1.534c5.772,0,10.636,8.5,10.636,18.547S50.918,57.177,45.146,57.177a7.183,7.183,0,0,1-4.137-1.534m11.241,1.13c-.081,0-.141-.02-.222-.02,3.834-3.673,6.357-10.333,6.357-18.143s-2.523-14.47-6.357-18.143c.081,0,.141-.02.222-.02,5.832,0,10.575,8.153,10.575,18.163S58.082,56.774,52.25,56.774" transform="translate(0 0)" fill="#ad1501"/>
        <path id="Path_780" data-name="Path 780" d="M34.3,223.86a25.441,25.441,0,0,0,.848,3.068l2.482-.827a28.035,28.035,0,0,1-.767-2.785Z" transform="translate(-27.378 -178.247)" fill="#ad1501"/>
        <path id="Path_781" data-name="Path 781" d="M213,164.519a34.138,34.138,0,0,1,.363,3.552l2.624-.121a34.257,34.257,0,0,0-.383-3.835Z" transform="translate(-170.013 -130.994)" fill="#ad1501"/>
      </g>
    </g>
  </g>
</svg>
