<svg xmlns="http://www.w3.org/2000/svg" width="39.508" height="30.816" viewBox="0 0 39.508 30.816">
  <g id="local_shipping_black_24dp_1_" data-name="local_shipping_black_24dp (1)" transform="translate(0.001)">
    <path id="Path_7251" data-name="Path 7251" d="M0,0H20.636V22.8H0Z" transform="translate(0 0)" fill="none"/>
    <path id="Path_7252" data-name="Path 7252" d="M35.121,11.2H29.733V4H4.592A3.607,3.607,0,0,0,1,7.6V27.413H4.592a5.387,5.387,0,1,0,10.775,0H26.141a5.387,5.387,0,1,0,10.775,0h3.592v-9ZM9.979,30.114a2.7,2.7,0,1,1,2.694-2.7A2.694,2.694,0,0,1,9.979,30.114ZM34.223,13.905l3.52,4.5H29.733v-4.5ZM31.529,30.114a2.7,2.7,0,1,1,2.694-2.7A2.694,2.694,0,0,1,31.529,30.114Z" transform="translate(-1.001 -2)" fill="#f9f6f2"/>
    <path id="Path_24146" data-name="Path 24146" d="M80.351,61.6l8-2.723,2.68-10.344H76.35l4,13.07h0Zm4.768-6.807c.062-2.562.953-3.113,1.59-3.113.347,0,.619.164.637.254l.17-.214h.634v1.909h-.894v-.343c-.025-.337-.179-.545-.362-.545-.3,0-.684.591-.656,2.16.034,1.9.077,2.649.644,2.649.371,0,.371-.5.374-.5h0V56.3h.928v.634A1.6,1.6,0,0,1,86.8,58.719h-.006c-.916,0-1.754-.514-1.671-3.936v.006Zm-3.41.223h.919v.532a.444.444,0,0,0,.418.483c.343,0,.653-.523-.18-2.027a10.947,10.947,0,0,1-.873-1.758c-.461-1.343.464-1.943,1.1-1.943h.028a.955.955,0,0,1,.678.257l.173-.241H84.6v1.909h-.879V51.94c0-.408-.238-.594-.442-.594-.183,0-.34.149-.294.418.043.254.606,1.132,1.086,2.082,1,1.974.115,3.4-.82,3.4a1.046,1.046,0,0,1-.786-.387l-.173.238h-.588V55.016h0Zm-.22-5.975v1.829H80.7v-.594H80.45v4.505l.285.173v.876H79.02v-.876l.285-.173V50.272h-.244v.594h-.783V49.037Z" transform="translate(-68.914 -42.693)" fill="#a02817"/>
  </g>
</svg>
