<svg xmlns="http://www.w3.org/2000/svg" width="98" height="98" viewBox="0 0 98 98">
  <g id="Icon_w_background" data-name="Icon w background" transform="translate(-240 -1087)">
    <circle id="Ellipse_16" data-name="Ellipse 16" cx="49" cy="49" r="49" transform="translate(240 1087)" fill="#f9f6f2"/>
    <g id="_2022-HP-ICON-REDESIGN-Livestock" data-name="2022-HP-ICON-REDESIGN-Livestock" transform="translate(247.571 1105.447)">
      <path id="Path_787" data-name="Path 787" d="M36.479,10.958h.038a5.052,5.052,0,0,0-.287,1.664,4.307,4.307,0,0,0,1.434,3.327,2.387,2.387,0,0,1,.229.172c-.841,1.358-3.461,5.641-4.876,8.375-1.816,3.556.9,9.082,1.013,9.312l.268.535.593-.1c1.185-.191,7.151-1.281,7.687-4.187l.172-.937c.746-4.092,1.491-8.165,1.491-9.082H42.579c0,.841-1.013,6.406-1.453,8.777l-.172.937c-.21,1.185-3.327,2.256-5.7,2.734-.746-1.721-1.836-5.182-.765-7.247,1.4-2.715,4.111-7.113,4.876-8.356a8.58,8.58,0,0,0,2.945.459,14.674,14.674,0,0,0,1.989-.134,18.785,18.785,0,0,0,7.993-3.193c.019.019.038.038.057.038a15.222,15.222,0,0,1,4.474,7.687A14.573,14.573,0,0,0,60.265,28.3c3.155,3.384,6.119,6.864,6.6,9.9A2.611,2.611,0,0,0,64.7,37.077a2.639,2.639,0,0,0,0,5.277,2.543,2.543,0,0,0,.86-.153A6.232,6.232,0,0,1,60.877,44c-2.218-.038-4.168-.994-4.8-1.893l-.918-1.3-1.052,1.2c-.057.057-5.794,6.5-16.52,2.658L36.9,44.42,17.454,61.151h3.824L37.435,47.269c9.388,3.078,15.354-.765,17.572-2.677A9.92,9.92,0,0,0,60.82,46.5a8.54,8.54,0,0,0,7.209-3.365c4.226-5.6-1.893-12.18-5.947-16.54a12.222,12.222,0,0,1-2.868-5.583,23.056,23.056,0,0,0-1.472-3.939c3.021-1.281,7.84-4.455,9.809-11.97A1.263,1.263,0,0,0,67,3.731a1.242,1.242,0,0,0-1.491.153l-.841.784c-2.83,2.62-4.57,4.207-7.82,4.933A23.555,23.555,0,0,0,60.59,1.513,1.263,1.263,0,0,0,60.036.136a1.242,1.242,0,0,0-1.491.153l-1.033.956c-4.933,4.589-7.189,6.692-16.119,6.692h0a29.419,29.419,0,0,0-4.513.382C29.959,4.61,18.792,3.654,13.4,3.425v2.5c5.335.249,16.329,1.224,22.658,4.8ZM63.1,9.371a13.537,13.537,0,0,1-6.673,5.583A21.033,21.033,0,0,0,54.3,12.488,14.773,14.773,0,0,0,63.1,9.371ZM41.374,10.442h.421c7.667-.057,10.995-1.74,14.589-4.8a16.7,16.7,0,0,1-12.39,9.121c-2.2.287-3.862.038-4.685-.688a1.8,1.8,0,0,1-.593-1.453C38.716,11.169,39.615,10.442,41.374,10.442Z" transform="translate(0 0)" fill="#ad1501"/>
      <path id="Path_788" data-name="Path 788" d="M200.528,114.214a1.814,1.814,0,1,0-1.814,1.814A1.818,1.818,0,0,0,200.528,114.214Z" transform="translate(-148.563 -91.028)" fill="#ad1501"/>
    </g>
  </g>
</svg>
